<svg xmlns="http://www.w3.org/2000/svg" viewBox="0 0 32 32" >
  <path d="M109.008 187.514c.741 0 1.323.582 1.323 1.323" class="st2"/>
  <path d="M114.009 184.286h-.318a.75.75 0 00-.714-.476.78.78 0 00-.794.794c0 .45.344.793.794.793h1.032a.543.543 0 00.556-.555.543.543 0 00-.556-.556z" class="st1" fill="#ececec"/>
  <path d="M112.977 183.81a.78.78 0 01.794.794" class="st2" fill="#ececec"/>
  <path d="M111.575 189.63a3.144 3.144 0 002.99-3.148 2.38 2.38 0 01-4.498-1.085c0-.926.529-1.72 1.296-2.116a3.179 3.179 0 00-3.148 3.175c0 .423.079.82.238 1.19" class="st1"/>
  <path d="M110.699 188.269l-.102-.802c-.212-.476-1.062.008-1.618.008a1.31 1.31 0 00-1.323 1.323c0 .74.582 1.323 1.323 1.323h1.72a.937.937 0 00.926-.926c0-.503-.926-.926-.926-.926z" class="st1" fill="#ececec"/>
</svg>
